<svg width="21" height="20" viewBox="0 0 21 20" fill="none" xmlns="http://www.w3.org/2000/svg">
<path d="M13.5095 13.0668L12.9936 13.8401C12.8907 13.9944 12.7545 14.1261 12.575 14.1735C11.9872 14.3287 10.4265 14.3988 8.05048 12.0244C5.67444 9.65004 5.74456 8.09046 5.89989 7.50302C5.94731 7.32368 6.0791 7.1876 6.23355 7.0847L7.00734 6.5692C7.58344 6.1854 7.73911 5.40757 7.35504 4.83187L5.89362 2.64126C5.55839 2.13876 4.91213 1.94678 4.35665 2.18468L3.6974 2.46702C3.19659 2.6815 2.78807 3.06643 2.5444 3.55343C2.34082 3.96031 2.18303 4.38877 2.16165 4.84317C2.09428 6.27515 2.4085 9.80312 6.34092 13.7328C10.2733 17.6625 13.8037 17.9765 15.2367 17.9092C15.6914 17.8878 16.1202 17.7301 16.5273 17.5267C17.0147 17.2832 17.3999 16.8749 17.6145 16.3745L17.8971 15.7157C18.1351 15.1606 17.943 14.5148 17.4402 14.1798L15.248 12.7194C14.6719 12.3356 13.8935 12.4911 13.5095 13.0668Z" fill="#898989"/>
</svg>
