<svg width="21" height="20" viewBox="0 0 21 20" fill="none" xmlns="http://www.w3.org/2000/svg">
<path fill-rule="evenodd" clip-rule="evenodd" d="M11.0435 18.5413C13.1592 17.0976 17.9861 13.3048 17.9861 8.74992C17.9861 4.37766 14.4417 0.833252 10.0694 0.833252C5.69718 0.833252 2.15277 4.37766 2.15277 8.74992C2.15277 13.3048 6.97969 17.0976 9.09539 18.5413C9.68703 18.945 10.4518 18.945 11.0435 18.5413ZM10.0694 11.2499C11.4501 11.2499 12.5694 10.1306 12.5694 8.74992C12.5694 7.36921 11.4501 6.24992 10.0694 6.24992C8.68873 6.24992 7.56944 7.36921 7.56944 8.74992C7.56944 10.1306 8.68873 11.2499 10.0694 11.2499Z" fill="#898989"/>
</svg>
