<svg width="16" height="16" viewBox="0 0 16 16" fill="none" xmlns="http://www.w3.org/2000/svg">
<path d="M11.5095 11.0668L10.9936 11.8401C10.8907 11.9944 10.7545 12.1261 10.575 12.1735C9.98717 12.3287 8.42652 12.3988 6.05048 10.0244C3.67444 7.65004 3.74456 6.09046 3.89989 5.50302C3.94731 5.32368 4.0791 5.1876 4.23355 5.0847L5.00734 4.5692C5.58344 4.1854 5.73911 3.40757 5.35504 2.83187L3.89362 0.64126C3.55839 0.138762 2.91213 -0.0532187 2.35665 0.18468L1.6974 0.467021C1.19659 0.681503 0.788068 1.06643 0.544398 1.55343C0.34082 1.96031 0.183032 2.38877 0.161654 2.84317C0.0942813 4.27515 0.408496 7.80312 4.34092 11.7328C8.27334 15.6625 11.8037 15.9765 13.2367 15.9092C13.6914 15.8878 14.1202 15.7301 14.5273 15.5267C15.0147 15.2832 15.3999 14.8749 15.6145 14.3745L15.8971 13.7157C16.1351 13.1606 15.943 12.5148 15.4402 12.1798L13.248 10.7194C12.6719 10.3356 11.8935 10.4911 11.5095 11.0668Z" fill="#898989"/>
</svg>
