<svg width="16" height="19" viewBox="0 0 16 19" fill="none" xmlns="http://www.w3.org/2000/svg">
<path fill-rule="evenodd" clip-rule="evenodd" d="M9.04348 18.5413C11.1592 17.0976 15.9861 13.3048 15.9861 8.74992C15.9861 4.37766 12.4417 0.833252 8.06944 0.833252C3.69718 0.833252 0.152771 4.37766 0.152771 8.74992C0.152771 13.3048 4.97969 17.0976 7.09539 18.5413C7.68703 18.945 8.45185 18.945 9.04348 18.5413ZM8.06944 11.2499C9.45015 11.2499 10.5694 10.1306 10.5694 8.74992C10.5694 7.36921 9.45015 6.24992 8.06944 6.24992C6.68873 6.24992 5.56944 7.36921 5.56944 8.74992C5.56944 10.1306 6.68873 11.2499 8.06944 11.2499Z" fill="#898989"/>
</svg>
